<?xml version="1.0" standalone="no"?>
<!DOCTYPE svg PUBLIC "-//W3C//DTD SVG 20010904//EN"
 "http://www.w3.org/TR/2001/REC-SVG-20010904/DTD/svg10.dtd">
<svg version="1.0" xmlns="http://www.w3.org/2000/svg"
 width="400.000000pt" height="400.000000pt" viewBox="0 0 400.000000 400.000000"
 preserveAspectRatio="xMidYMid meet">

<g transform="translate(0.000000,400.000000) scale(0.100000,-0.100000)"
fill="#000000" stroke="none">
<path d="M0 2000 l0 -2000 2000 0 2000 0 0 2000 0 2000 -2000 0 -2000 0 0
-2000z m2510 1496 c19 -3 118 -15 220 -25 l185 -19 310 -154 310 -154 41 -69
c22 -39 82 -144 134 -235 51 -91 102 -181 113 -201 l21 -37 -54 -63 c-30 -35
-57 -66 -60 -69 -3 -3 -63 -77 -133 -165 -91 -115 -134 -161 -149 -162 -16 -2
-19 0 -9 6 10 6 6 13 -16 28 -37 26 -66 37 -57 21 5 -8 2 -9 -10 -5 -14 6 -17
3 -12 -9 5 -14 4 -15 -9 -4 -12 10 -16 9 -21 -5 -5 -13 -9 -14 -15 -3 -7 10
-9 11 -9 0 0 -8 -5 -10 -12 -6 -8 5 -9 2 -5 -10 5 -12 3 -15 -6 -9 -6 4 -19 8
-27 10 -10 1 -9 -3 4 -13 21 -15 10 -20 -13 -5 -12 8 -71 -13 -71 -25 0 -3 4
-3 9 0 5 3 9 -6 9 -19 -1 -14 -5 -28 -11 -32 -6 -3 -7 -1 -3 5 5 8 2 10 -8 6
-9 -3 -13 -10 -10 -15 4 -8 -26 -14 -49 -10 -5 1 -6 -3 -3 -8 4 -5 2 -12 -4
-16 -5 -3 -10 0 -10 7 0 10 -2 10 -8 1 -4 -7 -21 -11 -37 -10 -18 1 -30 -3
-32 -13 -3 -9 -1 -11 4 -5 9 12 28 14 37 4 3 -3 0 -6 -7 -7 -24 -2 -47 -8 -53
-15 -4 -4 -16 0 -26 10 -10 9 -18 13 -18 9 0 -4 -4 -4 -10 -1 -6 4 -2 21 10
46 11 21 18 39 15 39 -3 0 -1 9 5 20 8 16 8 24 -3 35 -8 8 -17 11 -21 8 -3 -4
-6 1 -6 10 0 9 -5 19 -12 23 -7 5 -9 2 -3 -7 8 -16 -33 30 -53 58 -7 10 -10
11 -7 3 4 -8 -1 -6 -9 4 -16 20 -16 20 -17 0 -1 -10 -1 -23 0 -27 1 -5 -3 -6
-9 -2 -6 3 -8 10 -5 15 3 4 -3 7 -12 5 -10 -2 -24 -4 -31 -4 -7 -1 -10 -5 -7
-11 3 -6 -1 -7 -9 -4 -10 4 -16 1 -16 -7 0 -7 -3 -9 -6 -6 -4 4 -1 13 6 22 11
13 10 14 -4 9 -9 -3 -16 -9 -16 -13 0 -3 -9 -17 -19 -30 l-19 -25 5 27 c3 15
9 24 14 21 5 -3 9 -1 9 4 0 5 -15 9 -34 9 -24 -1 -33 -6 -31 -16 1 -8 7 -17
13 -19 7 -2 12 -11 12 -20 0 -11 -3 -13 -11 -5 -14 14 -59 -6 -60 -27 0 -10
-3 -8 -9 5 -8 18 -9 18 -9 -5 -1 -19 -3 -22 -10 -10 -6 8 -7 19 -4 25 3 5 0 4
-8 -2 -15 -15 -33 -17 -25 -5 3 5 -7 8 -22 7 -15 -1 -34 2 -43 6 -14 7 -16 3
-14 -21 2 -20 -1 -27 -9 -23 -19 12 -36 12 -36 0 0 -7 -4 -5 -10 3 -8 12 -13
13 -29 3 -14 -9 -22 -9 -27 -2 -4 8 -9 8 -17 0 -7 -7 -15 -7 -26 2 -12 10 -14
9 -9 -4 4 -9 1 -16 -7 -16 -10 0 -11 5 -4 18 5 11 17 16 29 14 11 -2 20 0 20
6 0 5 -14 7 -31 4 -18 -3 -28 -2 -25 4 4 5 1 13 -5 17 -8 4 -9 3 -5 -4 8 -13
-27 -34 -40 -24 -5 4 -5 3 -1 -2 11 -14 37 -16 37 -3 0 5 3 8 6 4 3 -3 1 -14
-5 -24 -6 -11 -11 -13 -11 -5 0 7 -4 11 -9 8 -5 -3 -15 1 -22 10 -10 13 -10
17 2 26 11 8 11 9 -3 4 -10 -3 -18 1 -21 12 -4 13 -5 13 -6 -3 0 -11 7 -32 16
-45 16 -24 16 -24 0 -11 -9 7 -21 28 -26 45 -7 24 -9 26 -10 9 -1 -12 -5 -24
-9 -27 -5 -3 -7 12 -6 32 1 20 0 31 -3 25 -2 -7 -9 -13 -14 -13 -6 0 -7 6 -3
13 6 9 4 9 -8 -1 -14 -11 -18 -10 -28 5 -9 14 -10 14 -7 2 4 -12 -1 -16 -17
-16 -16 0 -22 5 -22 21 1 11 6 25 11 29 6 5 4 7 -5 4 -9 -2 -15 -16 -15 -35 0
-17 -4 -34 -8 -38 -4 -4 -7 -21 -7 -39 0 -17 -7 -40 -16 -51 -8 -10 -13 -13
-9 -6 3 6 1 12 -5 12 -6 0 -9 4 -5 9 3 5 0 13 -6 17 -8 4 -9 3 -5 -5 8 -13
-29 -12 -50 1 -6 4 -11 1 -11 -7 0 -8 5 -11 11 -8 6 4 5 -1 -3 -10 -14 -17
-26 -24 -17 -9 2 4 1 14 -5 22 -7 13 -9 12 -9 -2 0 -9 -4 -19 -9 -22 -4 -3 -6
7 -4 22 3 25 3 26 -6 5 -6 -13 -12 -23 -15 -23 -2 0 -2 10 1 23 4 21 4 21 -8
3 -12 -19 -12 -19 -27 0 -14 18 -14 18 -9 -3 3 -13 2 -25 -2 -28 -4 -2 -8 2
-9 10 -1 8 -3 21 -4 28 -2 19 -63 15 -85 -5 -18 -16 -19 -16 -20 5 -2 15 0 18
6 9 7 -11 9 -11 14 1 4 10 -2 13 -21 12 -15 -1 -33 3 -41 9 -11 8 -13 8 -7 -1
4 -7 3 -13 -3 -13 -5 0 -12 6 -15 13 -3 6 -3 -1 -1 -17 2 -16 1 -25 -3 -21 -4
3 -6 10 -5 13 0 4 -3 14 -8 23 -8 17 -46 19 -80 4 -10 -3 -20 -2 -24 4 -3 6 0
9 8 5 8 -3 18 -1 22 5 4 7 0 8 -11 4 -11 -4 -15 -3 -10 5 3 6 1 14 -5 18 -7 4
-10 3 -7 -2 3 -5 -1 -16 -10 -23 -14 -13 -15 -12 -10 7 7 24 -6 39 -18 20 -5
-8 -10 -6 -15 8 -6 15 -8 15 -8 3 -1 -9 -8 -22 -16 -29 -8 -7 -12 -17 -8 -23
3 -6 1 -7 -6 -3 -6 4 -9 11 -6 16 3 5 -7 17 -22 27 -15 10 -30 20 -33 24 -3 3
-24 5 -47 4 -24 -1 -43 2 -43 6 0 5 -7 6 -15 3 -8 -4 -12 -11 -8 -17 4 -6 1
-7 -6 -3 -7 5 -10 14 -7 22 4 12 2 12 -14 4 -11 -6 -20 -16 -20 -23 0 -7 -4
-6 -10 3 -7 12 -10 12 -10 1 0 -8 -6 -11 -15 -7 -10 3 -18 -1 -22 -12 -13 -37
-25 -44 -45 -25 -21 19 -23 24 60 -157 32 -71 38 -108 15 -88 -8 6 -12 17 -9
25 3 8 2 12 -3 8 -5 -3 -12 1 -15 7 -3 7 -3 2 0 -11 6 -21 4 -22 -9 -10 -8 8
-13 16 -12 19 2 3 -1 12 -7 20 -8 12 -9 12 -4 -2 3 -10 1 -20 -4 -23 -6 -4
-10 4 -11 17 0 22 -1 22 -9 3 -7 -16 -9 -16 -9 -3 -1 24 -65 59 -81 45 -10 -9
-11 -9 -7 -1 4 7 0 15 -9 18 -10 4 -13 2 -9 -7 4 -6 -1 -3 -10 8 -9 11 -23 19
-32 17 -10 -2 -12 1 -7 10 6 10 4 10 -9 -1 -15 -12 -18 -10 -27 14 -9 24 -12
26 -27 14 -15 -12 -16 -12 -10 5 7 17 5 17 -10 5 -10 -7 -15 -9 -11 -5 12 14
-11 36 -29 29 -12 -5 -14 -3 -8 8 7 11 6 12 -7 2 -15 -13 -28 -8 -28 11 0 6 5
4 10 -4 6 -9 10 -10 10 -3 0 17 -17 25 -25 12 -5 -7 -15 -3 -31 12 -21 19 -27
21 -49 11 -15 -7 -24 -16 -21 -21 3 -5 0 -14 -8 -20 -17 -15 -51 21 -42 45 5
13 4 14 -7 6 -17 -14 -46 16 -180 183 -52 66 -118 147 -146 180 -28 33 -51 64
-51 69 0 11 347 566 369 588 9 9 88 47 176 83 88 36 241 100 340 141 l180 74
330 8 c354 9 838 8 895 -2z m170 -1291 c0 -9 -6 -12 -15 -9 -8 4 -12 10 -9 15
8 14 24 10 24 -6z m-1355 -14 c-9 -8 -36 -10 -30 -2 2 4 11 8 20 8 8 0 13 -3
10 -6z m2078 -8 c3 -5 -5 -8 -18 -8 -13 0 -21 3 -18 8 2 4 10 7 18 7 8 0 16
-3 18 -7z m-1920 -23 c-3 -12 -8 -19 -11 -16 -5 6 5 36 12 36 2 0 2 -9 -1 -20z
m605 7 c9 -10 6 -13 -13 -13 -19 0 -22 3 -13 13 6 7 12 13 13 13 1 0 7 -6 13
-13z m38 -3 c-1 -8 -6 -17 -12 -21 -5 -4 -6 -4 -2 1 4 5 3 14 -2 21 -7 8 -5
12 4 12 8 0 13 -6 12 -13z m-675 -17 c-10 -9 -11 -8 -5 6 3 10 9 15 12 12 3
-3 0 -11 -7 -18z m1029 -12 c0 -8 -2 -15 -4 -15 -2 0 -6 7 -10 15 -3 8 -1 15
4 15 6 0 10 -7 10 -15z m30 4 c5 9 10 8 19 -3 9 -11 9 -16 0 -22 -8 -5 -9 -3
-5 5 5 8 2 11 -9 9 -10 -2 -19 3 -21 10 -1 8 0 8 3 1 4 -8 7 -8 13 0z m-944
-14 c-1 -8 -5 -17 -8 -21 -5 -4 -4 16 1 34 3 9 9 -1 7 -13z m41 -7 c-3 -8 -6
-5 -6 6 -1 11 2 17 5 13 3 -3 4 -12 1 -19z m1603 -3 c-15 -18 0 -20 19 -2 11
9 12 9 7 0 -10 -18 -44 -35 -50 -25 -6 9 26 54 33 47 2 -3 -2 -11 -9 -20z
m-1030 11 c0 -2 -8 -10 -17 -17 -16 -13 -17 -12 -4 4 13 16 21 21 21 13z
m-1513 -19 c0 -8 -6 -14 -14 -14 -9 0 -10 4 -2 14 6 7 12 13 14 13 1 0 2 -6 2
-13z m1000 -2 c0 -8 -4 -12 -9 -9 -5 3 -6 10 -3 15 9 13 12 11 12 -6z m107
-11 c3 -8 2 -12 -4 -9 -6 3 -10 10 -10 16 0 14 7 11 14 -7z m191 -13 c3 -5 2
-12 -3 -15 -5 -3 -9 1 -9 9 0 17 3 19 12 6z m-1161 -83 c-2 -4 -14 -5 -25 -3
-13 3 -19 0 -16 -8 5 -15 27 -16 47 -3 13 10 13 9 1 -6 -7 -10 -17 -16 -21
-13 -4 3 -10 -2 -14 -10 -3 -8 -1 -17 4 -20 4 -3 11 1 13 7 4 9 6 10 6 1 2
-26 -17 -20 -50 14 -19 20 -27 33 -17 30 11 -4 15 -2 12 6 -3 9 7 13 30 13 19
0 33 -4 30 -8z m245 -15 c2 -1 -5 -1 -16 0 -11 0 -20 7 -20 14 0 10 4 10 16 1
9 -7 18 -13 20 -15z m-233 -72 c0 -16 -4 -27 -7 -25 -4 2 -6 12 -4 22 2 9 4
20 4 25 1 4 3 7 5 7 2 0 3 -13 2 -29z m21 -46 c0 -8 -4 -12 -9 -9 -5 3 -6 10
-3 15 9 13 12 11 12 -6z m74 -71 c27 -19 46 -40 43 -45 -3 -5 0 -8 8 -7 7 2
12 -3 10 -10 -1 -8 2 -11 7 -8 5 4 12 2 15 -3 6 -10 35 -7 93 9 22 5 35 5 40
-3 11 -18 10 -97 -1 -97 -6 0 -4 -5 4 -10 12 -8 12 -10 1 -10 -8 0 -12 -3 -8
-6 3 -3 14 -1 24 5 14 8 14 10 3 11 -13 0 -13 1 0 10 8 5 19 5 25 1 5 -5 18
-7 28 -6 9 2 15 -1 11 -6 -3 -5 -10 -7 -15 -4 -15 10 -10 -2 8 -16 9 -8 14 -9
10 -3 -4 7 0 14 8 18 8 3 17 1 20 -5 4 -5 10 -7 15 -4 5 3 12 0 16 -6 5 -8 3
-9 -6 -4 -9 6 -11 4 -5 -4 5 -9 10 -10 18 -2 15 15 30 14 21 -1 -5 -7 -3 -8 7
-2 20 12 38 14 44 4 3 -5 -3 -7 -13 -5 -11 2 -19 -3 -19 -11 0 -10 4 -11 14
-3 7 6 13 8 13 5 0 -4 4 -4 10 -1 6 4 4 20 -6 43 -51 119 -71 182 -62 189 7 4
8 1 3 -7 -6 -10 -4 -12 9 -7 10 4 15 3 11 -3 -3 -6 -1 -10 4 -10 6 0 11 -5 11
-11 0 -8 -6 -7 -17 2 -16 12 -17 12 -6 -2 7 -9 9 -20 5 -25 -4 -4 1 -2 11 6
11 8 16 21 13 33 -3 13 -2 17 5 10 6 -6 11 -19 12 -31 0 -11 4 -19 8 -16 4 2
6 13 4 23 -2 10 3 18 10 18 8 0 11 -5 8 -10 -4 -6 0 -8 10 -4 11 4 14 2 10 -9
-4 -10 0 -12 13 -7 13 5 15 3 10 -8 -4 -8 -1 -6 7 4 14 17 16 16 25 -10 8 -22
11 -24 12 -8 1 19 2 19 9 2 4 -10 11 -19 16 -19 6 -1 16 -8 23 -17 11 -14 11
-14 6 4 -6 20 -5 20 10 1 9 -11 16 -14 16 -8 0 7 5 12 11 12 5 0 7 -5 3 -12
-4 -6 -3 -8 4 -4 5 3 13 0 16 -6 3 -10 9 -8 19 5 13 16 15 16 21 2 3 -9 10
-13 16 -10 5 3 10 1 10 -5 0 -7 -7 -10 -14 -7 -12 5 -13 1 -7 -16 5 -12 12
-22 17 -22 5 0 14 -4 21 -8 6 -4 15 -3 18 3 4 6 1 9 -6 8 -6 -2 -13 10 -15 27
-3 27 -2 28 6 8 12 -28 24 -30 17 -3 -7 27 17 44 50 35 42 -12 55 -14 49 -8
-3 3 2 12 12 19 14 11 21 9 40 -9 13 -12 23 -17 22 -12 -5 21 0 36 10 30 6 -4
8 -12 4 -18 -3 -7 3 -2 13 9 12 14 25 19 34 15 22 -11 37 -8 53 14 15 20 15
20 11 -3 -2 -12 0 -20 6 -17 5 4 9 14 9 23 0 14 2 15 9 2 6 -8 7 -19 4 -25 -3
-5 0 -4 7 2 11 10 18 9 34 -5 11 -9 17 -12 13 -7 -3 6 3 17 15 24 12 7 17 8
13 1 -4 -7 2 -9 17 -6 20 3 24 0 24 -17 -1 -13 4 -21 12 -19 6 1 18 3 25 5 6
1 11 -4 9 -11 -1 -8 2 -11 8 -7 6 3 8 11 5 16 -4 5 -1 9 5 9 6 0 9 4 6 8 -3 5
1 9 9 9 11 0 12 -4 4 -13 -7 -8 -6 -14 2 -20 8 -4 9 -3 5 4 -4 7 -1 12 8 12
10 0 14 -6 11 -17 -3 -10 2 -4 10 12 l16 30 -4 -28 c-2 -15 0 -30 5 -33 4 -3
7 -1 6 4 -2 6 2 10 7 10 6 0 9 -5 7 -11 -2 -6 6 -3 17 7 12 11 21 24 20 30 -3
24 2 32 20 32 13 0 17 -5 13 -16 -5 -13 -4 -13 13 0 17 14 18 14 6 -7 -8 -16
-8 -23 -1 -23 6 0 9 -4 5 -9 -3 -5 -1 -13 5 -16 6 -4 10 -3 9 2 -3 19 2 27 10
15 7 -11 9 -11 14 1 4 11 0 15 -14 12 -10 -2 -19 1 -19 7 0 5 7 8 15 4 14 -5
20 5 16 27 -1 5 3 6 8 2 6 -3 8 -12 5 -19 -4 -10 2 -12 19 -9 17 3 32 -2 46
-16 12 -12 21 -16 21 -10 0 5 6 7 13 3 8 -5 8 -3 -2 9 -7 9 -17 15 -21 12 -5
-3 -12 0 -16 7 -4 7 -4 10 1 6 4 -4 15 -2 23 5 13 9 14 9 8 0 -4 -7 -3 -13 1
-13 5 0 15 6 23 13 12 10 12 9 2 -5 -10 -12 -10 -18 -1 -24 8 -4 9 -3 5 4 -4
7 -2 12 3 12 6 0 11 6 11 14 0 23 16 27 31 8 13 -15 12 -16 -3 -3 -16 12 -18
11 -18 -2 0 -9 7 -14 18 -12 9 1 16 8 14 14 -3 15 11 14 27 -1 10 -11 12 -10
9 2 -2 8 4 14 12 15 8 0 17 11 19 25 l4 25 8 -25 7 -25 2 25 c1 23 2 23 10 5
7 -17 9 -17 9 -2 1 9 4 17 9 18 4 0 17 2 30 5 29 5 28 -11 -3 -81 -14 -30 -36
-79 -49 -109 -22 -47 -23 -54 -8 -51 9 1 22 -1 28 -6 7 -5 11 -3 11 6 0 8 -5
11 -11 8 -6 -4 -5 1 3 10 15 18 26 23 16 7 -3 -5 -2 -10 4 -10 5 0 12 6 14 13
3 6 6 3 6 -8 1 -16 3 -17 10 -5 6 8 7 19 4 25 -3 5 0 4 7 -2 10 -10 17 -10 27
-1 8 6 13 7 11 2 -2 -5 2 -9 7 -9 6 0 9 3 8 7 -2 4 4 5 12 2 9 -4 15 -1 15 7
0 8 6 5 15 -7 14 -19 14 -19 15 1 0 17 2 17 10 5 5 -8 10 -10 11 -5 4 32 3 41
-6 47 -6 5 -4 8 5 8 12 0 12 2 2 8 -10 7 -10 15 -1 38 7 16 11 33 10 37 -1 5
3 6 9 2 8 -5 7 -11 -1 -21 -6 -8 -8 -14 -4 -14 4 0 1 -8 -6 -17 -7 -10 -9 -15
-5 -11 5 4 15 3 22 -3 10 -8 12 -5 9 14 -3 14 1 30 10 37 8 7 16 10 16 6 1 -3
3 -10 4 -16 1 -5 3 -13 4 -16 0 -4 7 -1 14 5 8 6 18 7 22 3 5 -4 5 -1 1 6 -9
15 16 26 58 26 17 0 37 6 44 13 7 7 19 13 25 13 7 0 4 -5 -5 -11 -10 -5 -18
-15 -18 -21 0 -8 -89 -128 -110 -148 -12 -11 -180 -221 -369 -460 -163 -206
-262 -320 -278 -320 -9 0 -13 -3 -10 -7 10 -10 -12 -40 -176 -246 -83 -103
-156 -186 -161 -184 -11 3 -221 260 -580 707 -249 311 -365 454 -419 518 -26
31 -66 84 -89 117 -23 33 -46 63 -52 67 -6 4 -7 8 -2 8 6 0 0 9 -12 20 -12 12
-22 26 -21 33 0 9 2 9 6 0 2 -7 27 -29 54 -49z m2309 52 c0 -2 -8 -10 -17 -17
-16 -13 -17 -12 -4 4 13 16 21 21 21 13z m-45 -55 c-3 -6 -11 -11 -16 -11 -5
0 -4 6 3 14 14 16 24 13 13 -3z m-507 -26 c-3 -3 -9 2 -12 12 -6 14 -5 15 5 6
7 -7 10 -15 7 -18z m-24 -6 c-3 -5 -10 -7 -15 -3 -5 3 -7 10 -3 15 3 5 10 7
15 3 5 -3 7 -10 3 -15z m-1100 -29 c4 0 5 4 1 9 -3 5 0 13 6 17 7 4 9 3 6 -3
-3 -5 3 -17 13 -26 13 -11 20 -12 23 -4 3 7 4 2 4 -10 l-1 -23 -23 22 c-14 13
-23 17 -23 9 0 -10 -3 -11 -13 -2 -8 6 -18 7 -22 3 -5 -4 -5 -2 -1 5 3 6 2 14
-4 18 -5 3 -10 -2 -10 -11 0 -10 -3 -15 -6 -11 -4 3 -4 14 0 23 6 15 8 16 24
0 10 -9 22 -16 26 -16z m518 16 c7 4 8 2 4 -5 -9 -13 -26 -5 -25 12 0 9 2 8 6
-1 2 -6 10 -9 15 -6z m-102 -6 c0 -4 -7 -7 -15 -6 -23 3 -26 12 -5 13 11 1 20
-2 20 -7z m1060 -5 c0 -1 -6 -7 -13 -13 -10 -8 -13 -6 -13 7 0 11 6 17 13 14
7 -3 13 -6 13 -8z m-1276 -6 c-5 -8 1 -10 20 -7 21 4 24 3 15 -8 -8 -10 -16
-10 -35 -2 -18 8 -21 14 -12 20 18 11 20 10 12 -3z m443 -4 c0 -8 -2 -13 -5
-10 -3 2 -13 0 -23 -6 -11 -5 -19 -6 -19 -2 0 5 10 13 23 19 12 7 22 12 23 13
0 0 1 -6 1 -14z m126 -10 c9 -21 -9 -27 -24 -8 -10 12 -10 14 -1 9 6 -4 12 -2
12 3 0 16 7 13 13 -4z m-653 -59 c0 -3 -4 -8 -10 -11 -5 -3 -10 -1 -10 4 0 6
5 11 10 11 6 0 10 -2 10 -4z m1053 -71 c-3 -9 -8 -14 -10 -11 -3 3 -2 9 2 15
9 16 15 13 8 -4z"/>
<path d="M2406 3055 c-15 -20 -32 -33 -37 -29 -5 3 -9 2 -8 -3 3 -20 -2 -34
-11 -28 -5 3 -10 1 -10 -6 0 -6 -10 -20 -22 -30 -11 -11 -17 -19 -13 -19 5 0
0 -6 -10 -14 -11 -8 -24 -12 -29 -9 -5 4 -6 1 -2 -6 5 -7 -1 -20 -13 -30 -11
-10 -17 -22 -13 -26 4 -5 -1 -5 -10 -2 -10 3 -17 3 -15 -1 3 -12 -55 -82 -63
-77 -5 3 -12 0 -16 -6 -4 -8 -3 -9 4 -5 23 14 12 -7 -18 -36 -17 -16 -35 -26
-40 -23 -5 3 -7 -1 -4 -9 3 -8 -4 -23 -15 -33 -47 -39 -32 -43 178 -43 150 0
200 3 204 13 2 6 3 32 0 57 -6 69 -4 86 10 128 13 38 12 106 -2 98 -4 -3 -7 4
-7 14 0 10 4 16 8 14 4 -3 8 -1 8 5 0 5 -6 12 -12 14 -7 3 -8 6 -3 6 10 1 12
77 2 87 -3 3 -3 12 0 20 10 27 -15 14 -41 -21z m52 -200 c-3 -3 -9 2 -12 12
-6 14 -5 15 5 6 7 -7 10 -15 7 -18z"/>
<path d="M2765 3069 c-4 -6 -5 -12 -2 -15 2 -3 7 2 10 11 7 17 1 20 -8 4z"/>
<path d="M1645 3051 c-3 -5 -2 -12 3 -15 5 -3 9 1 9 9 0 17 -3 19 -12 6z"/>
<path d="M1691 3042 c0 -13 -5 -21 -9 -18 -13 8 -8 -35 6 -60 9 -17 9 -24 -2
-33 -17 -14 -35 5 -31 32 2 9 -1 15 -5 12 -5 -3 -7 -14 -5 -25 2 -10 -2 -24
-10 -30 -14 -12 -14 -27 -1 -49 7 -11 5 -13 -10 -7 -14 5 -16 4 -7 -5 14 -14
36 -2 26 14 -11 17 -11 30 0 44 10 14 27 8 27 -8 0 -6 -4 -8 -8 -5 -5 3 -9 -1
-9 -9 0 -10 4 -12 12 -5 9 7 17 5 26 -7 12 -15 12 -16 -4 -10 -13 5 -21 0 -29
-18 -6 -13 -16 -22 -22 -18 -6 3 -8 3 -4 -2 4 -4 0 -13 -9 -20 -13 -9 -13 -14
-3 -20 9 -6 11 -4 5 5 -5 8 -3 11 5 8 7 -2 15 -15 17 -27 3 -21 1 -22 -14 -10
-10 7 -15 9 -11 5 4 -5 3 -15 -4 -23 -9 -11 -8 -13 2 -11 7 2 15 -3 17 -10 3
-6 -1 -10 -9 -9 -7 2 -10 2 -5 0 4 -3 4 -10 0 -16 -4 -7 0 -6 10 1 14 12 15
10 10 -25 -3 -21 -11 -43 -19 -49 -10 -8 -5 -11 21 -11 34 0 35 1 31 36 -2 20
-1 26 1 13 2 -12 8 -20 13 -17 5 3 5 16 0 31 -13 32 -12 37 0 29 6 -3 10 -16
11 -28 1 -21 2 -20 10 3 9 25 9 25 5 -2 -2 -16 0 -28 5 -28 12 0 17 23 9 40
-9 20 9 88 19 72 12 -19 34 32 26 59 -5 20 -4 21 5 9 10 -13 11 -12 6 3 -19
54 -18 53 -2 32 12 -13 14 -29 10 -55 -4 -19 -3 -32 0 -28 7 5 13 27 15 51 1
5 6 5 11 2 7 -4 6 -13 -1 -26 -6 -12 -8 -23 -5 -27 3 -3 6 1 6 9 0 12 2 11 11
-1 9 -12 10 -11 6 7 -3 13 0 26 5 30 7 3 8 1 4 -5 -4 -7 -2 -10 6 -9 7 2 10 2
6 0 -5 -3 -8 -12 -8 -21 0 -13 3 -13 16 4 8 10 12 13 8 5 -3 -7 0 -17 7 -22
11 -7 11 -9 1 -9 -10 0 -10 -3 0 -14 7 -8 17 -12 21 -9 5 3 5 -3 0 -13 -7 -15
-10 -83 -4 -114 2 -11 128 -5 128 7 0 6 -7 9 -15 5 -10 -3 -13 -1 -8 6 4 7 2
12 -5 12 -6 0 -9 8 -6 20 3 11 1 23 -4 26 -5 3 -9 2 -8 -3 3 -20 -2 -23 -17
-8 -9 8 -13 22 -10 31 3 8 2 13 -2 11 -9 -5 -42 29 -35 36 2 3 -5 10 -16 17
-12 6 -19 15 -16 20 3 5 -4 15 -15 23 -11 7 -17 16 -15 19 3 3 -8 17 -25 31
-16 14 -30 30 -30 35 0 15 -36 43 -45 35 -4 -5 -5 0 -2 10 4 11 1 20 -8 23 -8
4 -13 9 -11 13 3 4 -5 7 -17 8 -12 0 -17 -1 -10 -4 7 -2 9 -12 6 -21 -3 -11
-2 -13 4 -5 6 8 14 9 23 3 12 -8 12 -10 1 -10 -10 0 -11 -3 -2 -14 6 -7 13
-26 15 -42 2 -16 7 -38 11 -49 6 -16 3 -16 -13 4 -11 14 -19 30 -18 35 2 6 1
8 -1 3 -8 -13 -22 3 -17 18 4 8 11 12 18 8 6 -4 5 1 -3 10 -7 9 -17 14 -22 11
-5 -3 -10 0 -10 5 -3 26 -4 30 -11 37 -4 4 -3 13 3 20 6 7 9 21 6 31 -4 14 -5
13 -6 -5z m14 -118 c-9 -15 -12 -23 -6 -20 14 9 73 -73 69 -99 -2 -11 -10 -20
-18 -20 -8 0 -19 -14 -25 -31 -5 -17 -14 -32 -20 -33 -17 -4 -17 29 -1 54 9
13 16 30 16 36 0 7 7 17 16 24 14 9 11 11 -15 9 -28 -2 -30 0 -20 18 8 16 7
22 -8 33 -17 13 -17 14 1 34 26 29 32 26 11 -5z m89 -20 c4 -14 10 -22 15 -20
5 3 16 -3 25 -13 10 -11 13 -22 8 -25 -11 -7 -62 41 -62 58 0 7 -4 6 -9 -2 -5
-9 -8 -3 -9 18 -1 25 2 29 13 20 7 -6 16 -22 19 -36z m-107 -72 c2 -22 1 -23
-6 -8 -7 19 -8 19 -14 -3 -3 -13 -3 -20 0 -17 4 3 13 0 21 -7 9 -6 13 -7 10
-2 -3 6 -2 19 3 30 7 16 8 15 6 -10 -2 -26 -6 -30 -27 -27 -22 2 -23 1 -8 -10
15 -12 15 -17 1 -57 -8 -24 -13 -54 -11 -66 3 -12 0 -22 -7 -22 -8 0 -9 12 -4
41 5 30 4 47 -7 64 -11 16 -11 21 -2 20 13 -3 20 40 7 47 -4 3 0 19 9 35 19
33 25 31 29 -8z m236 -104 c-4 -18 -3 -20 6 -8 8 12 10 11 8 -7 0 -12 -5 -19
-9 -17 -10 6 -11 -10 -1 -19 3 -4 11 -2 18 3 8 7 12 5 12 -5 0 -8 -3 -13 -5
-10 -3 3 -13 -2 -22 -10 -14 -13 -16 -10 -14 33 1 53 2 62 8 62 2 0 2 -10 -1
-22z m67 -83 c14 -19 14 -19 -2 -6 -14 11 -18 11 -18 1 0 -8 -2 -11 -5 -8 -3
3 -3 13 1 22 4 9 7 16 8 14 1 -2 8 -12 16 -23z"/>
<path d="M1715 2871 c-6 -11 13 -26 22 -17 4 3 1 6 -6 6 -7 0 -9 5 -6 10 3 6
4 10 1 10 -3 0 -7 -4 -11 -9z"/>
<path d="M1752 2810 c0 -14 2 -19 5 -12 2 6 2 18 0 25 -3 6 -5 1 -5 -13z"/>
<path d="M1716 2780 c-10 -21 -16 -44 -13 -52 3 -8 6 -5 6 7 1 11 8 31 17 43
8 12 14 27 12 32 -2 5 -11 -8 -22 -30z"/>
<path d="M1810 2876 c0 -2 8 -10 18 -17 15 -13 16 -12 3 4 -13 16 -21 21 -21
13z"/>
<path d="M1664 2755 c-3 -8 -4 -20 -2 -27 3 -7 7 -1 10 15 6 29 1 36 -8 12z"/>
<path d="M2814 3036 c1 -8 5 -18 8 -22 4 -3 5 1 4 10 -1 8 -5 18 -8 22 -4 3
-5 -1 -4 -10z"/>
<path d="M1623 3015 c0 -8 4 -12 9 -9 5 3 6 10 3 15 -9 13 -12 11 -12 -6z"/>
<path d="M1769 2768 c-12 -22 -12 -51 1 -43 5 3 7 13 4 23 -5 15 -4 15 6 2 9
-12 10 -10 6 10 -3 14 -3 19 0 11 5 -11 8 -11 16 0 6 10 7 7 3 -8 -3 -13 -4
-23 0 -23 3 0 10 10 15 23 8 20 9 21 10 2 l1 -20 9 20 c7 15 9 16 9 4 1 -19
28 -45 38 -35 3 3 -1 14 -10 24 -10 10 -15 21 -13 23 3 3 -15 5 -40 5 -33 0
-48 -5 -55 -18z"/>
<path d="M1738 2738 c-3 -15 -1 -32 3 -39 11 -18 -9 -50 -29 -47 -9 2 -18 -4
-19 -12 -3 -12 8 -15 52 -16 46 0 55 3 55 18 0 10 0 20 0 23 0 3 -3 5 -7 5 -5
0 -7 -10 -7 -21 1 -11 -1 -17 -4 -14 -3 3 -7 22 -8 43 -2 28 0 32 6 17 8 -20
11 -18 14 8 1 6 11 11 23 11 14 -1 20 3 16 10 -3 6 -2 7 2 3 11 -10 16 -39 5
-32 -4 3 -13 -2 -19 -9 -8 -10 -9 -16 -1 -21 5 -3 10 -1 10 4 0 6 8 11 18 11
13 0 14 -2 3 -9 -8 -5 -9 -11 -3 -15 6 -4 15 2 21 11 6 10 11 15 11 10 0 -4
-5 -16 -12 -26 -11 -18 -13 -18 -26 -3 -12 16 -13 15 -8 -3 6 -20 6 -20 -9 -1
-13 17 -15 18 -15 3 0 -18 2 -19 48 -21 26 -1 27 1 27 44 1 34 -4 49 -20 60
-24 18 -36 19 -52 7 -7 -5 -13 -6 -13 -2 0 5 -9 0 -20 -10 -20 -18 -21 -18
-33 25 -2 9 -6 4 -9 -12z m131 -37 c-2 -6 -10 2 -17 17 -11 25 -11 25 4 10 9
-9 15 -21 13 -27z m-111 -6 c-3 -3 -9 2 -12 12 -6 14 -5 15 5 6 7 -7 10 -15 7
-18z m-1 -52 c-3 -10 -5 -4 -5 12 0 17 2 24 5 18 2 -7 2 -21 0 -30z"/>
<path d="M1803 2693 c0 -9 4 -10 14 -2 7 6 13 12 13 14 0 1 -6 2 -13 2 -8 0
-14 -6 -14 -14z"/>
<path d="M1613 2655 c0 -8 4 -12 9 -9 4 3 8 9 8 15 0 5 -4 9 -8 9 -5 0 -9 -7
-9 -15z"/>
<path d="M1337 2249 c4 -13 8 -18 11 -10 2 7 -1 18 -6 23 -8 8 -9 4 -5 -13z"/>
<path d="M1384 2262 c3 -6 -1 -15 -10 -20 -13 -7 -14 -13 -6 -28 7 -11 12 -13
12 -6 0 7 4 11 9 8 5 -3 12 1 15 10 5 14 9 14 24 3 15 -13 16 -12 3 4 -10 12
-17 15 -25 7 -15 -15 -30 -12 -17 4 9 11 9 16 0 22 -7 4 -9 3 -5 -4z"/>
<path d="M623 2212 c-8 -14 -8 -19 1 -19 7 0 13 9 13 19 1 10 1 18 0 18 -1 0
-7 -8 -14 -18z"/>
<path d="M2113 2215 c0 -8 4 -12 9 -9 5 3 6 10 3 15 -9 13 -12 11 -12 -6z"/>
<path d="M1410 2204 c0 -9 -5 -12 -12 -8 -7 4 -5 -2 6 -14 10 -12 24 -18 30
-14 7 4 5 8 -5 10 -11 2 -15 10 -12 23 3 10 3 19 -1 19 -3 0 -6 -7 -6 -16z"/>
<path d="M651 2187 c-6 -8 -8 -17 -4 -20 3 -4 1 -7 -5 -7 -7 0 -12 6 -12 13 0
6 -5 4 -11 -6 -8 -13 -7 -22 1 -32 13 -16 34 -10 25 6 -3 5 9 18 27 30 25 16
27 19 9 14 -16 -5 -21 -4 -17 4 10 15 1 14 -13 -2z m-17 -43 c3 -8 2 -12 -4
-9 -6 3 -10 10 -10 16 0 14 7 11 14 -7z"/>
<path d="M1116 2163 c-6 -14 -5 -15 5 -6 7 7 10 15 7 18 -3 3 -9 -2 -12 -12z"/>
<path d="M2407 2156 c4 -12 2 -17 -4 -13 -5 3 -21 8 -35 11 -25 4 -26 3 -19
-33 1 -2 7 1 14 7 7 6 29 10 49 8 30 -3 35 -1 30 12 -4 11 -7 12 -10 3 -3 -8
-8 -7 -18 6 -13 17 -14 17 -7 -1z"/>
<path d="M965 2071 c-3 -5 -2 -12 3 -15 5 -3 9 1 9 9 0 17 -3 19 -12 6z"/>
<path d="M995 2071 c-3 -5 -2 -12 3 -15 5 -3 9 1 9 9 0 17 -3 19 -12 6z"/>
<path d="M2934 2018 c-4 -7 -3 -10 1 -5 5 4 16 0 26 -9 20 -18 39 0 20 19 -9
9 -10 7 -5 -8 7 -19 7 -19 -13 -2 -17 15 -23 16 -29 5z"/>
<path d="M755 1960 c3 -5 8 -10 11 -10 2 0 4 5 4 10 0 6 -5 10 -11 10 -5 0 -7
-4 -4 -10z"/>
<path d="M2739 1798 c-5 -18 -6 -38 -1 -34 7 8 12 36 6 36 -2 0 -4 -1 -5 -2z"/>
<path d="M1379 1751 c6 -10 7 -21 3 -25 -3 -4 1 -4 10 -1 15 6 15 8 0 26 -21
24 -26 24 -13 0z"/>
<path d="M2084 1716 c1 -8 5 -18 8 -22 4 -3 5 1 4 10 -1 8 -5 18 -8 22 -4 3
-5 -1 -4 -10z"/>
<path d="M2111 1714 c0 -11 3 -14 6 -6 3 7 2 16 -1 19 -3 4 -6 -2 -5 -13z"/>
<path d="M1806 1703 c-6 -14 -5 -15 5 -6 7 7 10 15 7 18 -3 3 -9 -2 -12 -12z"/>
<path d="M2437 1695 c-6 -15 10 -32 20 -21 4 3 1 6 -6 6 -7 0 -9 5 -6 10 4 6
11 8 16 5 5 -4 9 -1 9 4 0 16 -27 13 -33 -4z"/>
<path d="M1696 1692 c-2 -4 0 -14 6 -22 8 -12 9 -12 5 2 -3 9 -1 19 6 22 9 3
9 5 0 5 -6 1 -14 -3 -17 -7z"/>
<path d="M2334 1688 c-4 -7 -4 -10 1 -6 4 4 15 2 24 -5 14 -11 14 -10 2 6 -16
20 -18 21 -27 5z"/>
<path d="M1584 1662 c4 -3 14 -7 22 -8 9 -1 13 0 10 4 -4 3 -14 7 -22 8 -9 1
-13 0 -10 -4z"/>
<path d="M1169 1611 c6 -10 7 -22 3 -26 -4 -5 -1 -5 6 -1 9 5 9 12 2 27 -6 10
-13 19 -16 19 -2 0 0 -8 5 -19z"/>
<path d="M1233 1595 c0 -8 4 -12 9 -9 5 3 6 10 3 15 -9 13 -12 11 -12 -6z"/>
<path d="M2791 1574 c0 -11 3 -14 6 -6 3 7 2 16 -1 19 -3 4 -6 -2 -5 -13z"/>
<path d="M2006 1232 c-2 -4 -1 -14 4 -22 7 -11 9 -9 7 8 -1 24 -3 26 -11 14z"/>
<path d="M1985 1214 c4 -17 1 -22 -12 -20 -13 1 -17 -5 -15 -19 2 -18 0 -17
-18 5 l-21 25 12 -25 c8 -14 13 -32 14 -42 0 -9 3 -19 7 -23 3 -4 5 1 4 12 -2
10 1 23 6 30 5 7 7 17 3 23 -3 5 -2 10 3 10 12 0 23 -26 14 -34 -10 -11 -11
-37 -1 -30 5 3 7 9 4 14 -5 9 19 32 27 25 2 -3 5 2 5 10 0 12 -3 12 -15 2 -12
-10 -14 -9 -9 8 4 11 2 27 -4 35 -8 12 -9 11 -4 -6z"/>
<path d="M1896 1193 c-6 -14 -5 -15 5 -6 7 7 10 15 7 18 -3 3 -9 -2 -12 -12z"/>
<path d="M1910 1150 c-9 -6 -10 -10 -3 -10 7 0 10 -11 8 -27 -2 -16 -2 -22 1
-15 3 6 11 9 17 5 9 -5 9 -3 1 8 -6 8 -10 22 -9 32 4 20 4 20 -15 7z"/>
</g>
</svg>
